<?xml version="1.0" encoding="utf-8"?>
<!-- Generator: Adobe Illustrator 19.0.0, SVG Export Plug-In . SVG Version: 6.00 Build 0)  -->
<svg version="1.1" id="Layer_1" xmlns="http://www.w3.org/2000/svg" xmlns:xlink="http://www.w3.org/1999/xlink" x="0px" y="0px"
	 viewBox="0 0 96 96" style="enable-background:new 0 0 96 96;" xml:space="preserve">
<style type="text/css">
	.st0{fill:#CE6F2D;}
	.st1{fill:#FFFFFF;}
</style>
<g id="XMLID_1_">
	<path id="XMLID_3_" class="st0" d="M23.2,20.5h49.5c1.5,0,2.7,1.2,2.7,2.7v49.5c0,1.5-1.2,2.7-2.7,2.7H23.2c-1.5,0-2.7-1.2-2.7-2.7
		V23.2C20.5,21.7,21.7,20.5,23.2,20.5z"/>
	<path id="XMLID_8_" class="st1" d="M54.4,49.8l-14.1-2.9l-0.7,3l16.2,3.3l0.6-2.5l0.8,0.4l1.4-3.2l-15.5-7.4l-1.4,3.2L54.4,49.8z
		 M60.7,51.2v9.5H35.3v-9.5h3.2v6.3h19v-6.3H60.7z M39.5,53.3h16.9v3.2H39.5V53.3z M60.7,45.2L58.6,48L44.8,37.3l1.5-2h1.6
		L60.7,45.2z"/>
</g>
</svg>
